<?xml version="1.0" encoding="UTF-8" standalone="no"?>
<svg
   xmlns:dc="http://purl.org/dc/elements/1.1/"
   xmlns:cc="http://creativecommons.org/ns#"
   xmlns:rdf="http://www.w3.org/1999/02/22-rdf-syntax-ns#"
   xmlns:svg="http://www.w3.org/2000/svg"
   xmlns="http://www.w3.org/2000/svg"
   viewBox="0 0 538.66669 335.44"
   height="335.44"
   width="538.66669"
   xml:space="preserve"
   id="svg2"
   version="1.1"><metadata
     id="metadata8"><rdf:RDF><cc:Work
         rdf:about=""><dc:format>image/svg+xml</dc:format><dc:type
           rdf:resource="http://purl.org/dc/dcmitype/StillImage" /></cc:Work></rdf:RDF></metadata><defs
     id="defs6"><clipPath
       id="clipPath20"
       clipPathUnits="userSpaceOnUse"><path
         id="path18"
         d="M 0,2515.76 V 0 h 4039.95 v 2515.76 z" /></clipPath></defs><g
     transform="matrix(1.3333333,0,0,-1.3333333,0,335.44)"
     id="g10"><g
       transform="scale(0.1)"
       id="g12"><g
         id="g14"><g
           clip-path="url(#clipPath20)"
           id="g16"><path
             id="path22"
             style="fill:#162b1e;fill-opacity:1;fill-rule:nonzero;stroke:none"
             d="m 1032.13,737.07 c 2.96,1.059 6.69,2.551 11.1,4.039 17.78,52.313 38.27,103.879 61.55,154.84 42.82,93.539 93.1,180.711 150.95,261.221 -284.46,-29.74 -543.953,-92.63 -778.441,-188.389 0,0 -0.797,-0.359 -2.273,-0.91 l 4.425,1.711 C 601.496,886.629 785.738,809.25 1032.13,737.07" /><path
             id="path24"
             style="fill:#162b1e;fill-opacity:1;fill-rule:nonzero;stroke:none"
             d="m 1021.08,1547.98 c 2.58,0.34 5.8,0.82 9.65,1.29 23.49,38.71 49.08,76.37 76.74,113 50.95,67.37 106.69,128.26 167.35,182.55 -233.14,26.61 -452.175,22.36 -657.074,-12.67 0,0 -0.637,-0.11 -1.91,-0.27 l 3.844,0.51 c 83.039,-88.12 216.867,-182.9 401.4,-284.41" /><path
             id="path26"
             style="fill:#162b1e;fill-opacity:1;fill-rule:nonzero;stroke:none"
             d="m 1489.58,2141.41 c 2.55,-0.09 5.66,-0.16 9.45,-0.3 28.88,33.12 59.6,64.87 92.14,95.32 59.91,55.96 123.36,104.9 190.35,146.79 -218.56,64.11 -428.72,96.47 -630.5,96.94 0,0 -0.64,0.04 -1.88,0.07 l 3.75,-0.12 c 64.79,-98.07 177.04,-210.92 336.69,-338.7" /><path
             id="path28"
             style="fill:#a7a5a6;fill-opacity:1;fill-rule:nonzero;stroke:none"
             d="M 3438.6,1257.88 C 3438.6,563.172 2875.43,0 2180.72,0 1486.02,0 922.844,563.172 922.844,1257.88 c 0,694.71 563.176,1257.88 1257.876,1257.88 694.71,0 1257.88,-563.17 1257.88,-1257.88" /><path
             id="path30"
             style="fill:#f1481d;fill-opacity:1;fill-rule:nonzero;stroke:none"
             d="m 3587.25,1062.36 c 161.97,-21.88 312.87,-35.17 452.7,-39.89 -151.15,42.94 -296.03,86.33 -434.52,130.08 -356.85,114.17 -670.87,228.24 -941.99,341.98 -269.85,113.83 -500.7,225.08 -692.51,333.67 -191.86,108.59 -349.83,211.69 -473.9,309.21 -2.5,1.39 -4.94,3.32 -7.39,5.94 -158.42,126.4 -270.03,239.23 -334.78,338.51 l -3.81,0.18 -542.62,-46.03 c 84.371,-116.36 185.386,-225.69 303.004,-328.01 117.686,-101.11 248.196,-195.72 391.506,-283.71 166.81,-102.81 345.3,-195.84 535.45,-279.16 190.18,-83.39 385.72,-156.8 586.65,-220.39 199.65,-63.44 397.75,-117.45 594.25,-161.86 196.55,-43.24 385.88,-76.76 567.96,-100.52" /><path
             id="path32"
             style="fill:#f14820;fill-opacity:1;fill-rule:nonzero;stroke:none"
             d="m 3340.41,822.281 c 168.28,6.328 323.77,19.438 466.55,39.27 -161.02,16.969 -315.67,35.449 -463.97,55.469 -382.37,53.031 -721.15,113.49 -1016.44,181.19 -293.91,67.91 -547.85,140.16 -761.7,216.63 -213.87,76.44 -392.34,153.23 -535.51,230.39 -2.75,0.95 -5.59,2.46 -8.52,4.72 -183.109,100.36 -316.23,195.25 -399.488,284.6 l -3.855,-0.5 L 74.793,1691.7 c 106.137,-103.23 227.922,-196.44 365.355,-279.53 137.235,-81.86 286.407,-154.91 447.375,-219.01 187.447,-74.94 384.987,-137.9 592.687,-189.04 207.72,-51.1 419.15,-91.14 634.27,-120.288 213.87,-29.191 424.45,-49.141 631.73,-59.582 207.13,-9.281 405.19,-9.898 594.2,-1.969" /><path
             id="path34"
             style="fill:#f14820;fill-opacity:1;fill-rule:nonzero;stroke:none"
             d="m 3220.95,590.609 c 155.4,40.692 297.51,84.95 426.37,132.961 -153.43,-17.511 -301.27,-32.281 -443.53,-44.261 -367.06,-29.547 -695.09,-43.2 -984.07,-41.129 -287.79,2.48 -539.16,17.359 -754.14,44.48 -214.98,26.969 -397.08,61.621 -546.353,103.922 -2.735,0.289 -5.7,1.199 -8.922,2.648 C 719.094,844.961 575.488,905.781 479.492,971.801 L 476,970.488 0,725.898 C 120.164,651.621 252.813,589.988 397.98,541 542.715,493.102 696.711,455.871 859.859,429.379 1049.93,398.332 1246.89,380.5 1450.87,375.762 c 204.06,-4.731 409.22,1.707 615.6,18.929 205.23,17 405.45,42 600.68,74.981 194.78,34.25 379.39,74.5 553.8,120.937" /></g></g></g></g></svg>